<mxfile host="localhost" agent="Mozilla/5.0 (Windows NT 10.0; Win64; x64; rv:137.0) Gecko/20100101 Firefox/137.0" version="26.2.8">
  <diagram name="Page-1" id="rPAVAIUXwrp3NtVOFYdb">
    <mxGraphModel dx="1428" dy="769" grid="1" gridSize="10" guides="1" tooltips="1" connect="1" arrows="1" fold="1" page="1" pageScale="1" pageWidth="827" pageHeight="1169" math="0" shadow="0">
      <root>
        <mxCell id="0" />
        <mxCell id="1" parent="0" />
        <mxCell id="pG2lrTUrzMcpjXLxko55-1" value="&lt;div align=&quot;left&quot;&gt;&lt;b&gt;&lt;font style=&quot;font-size: 40px;&quot;&gt;API DESC&lt;/font&gt;&lt;/b&gt;&lt;/div&gt;" style="text;html=1;align=left;verticalAlign=middle;whiteSpace=wrap;rounded=0;" vertex="1" parent="1">
          <mxGeometry x="40" width="250" height="60" as="geometry" />
        </mxCell>
        <mxCell id="pG2lrTUrzMcpjXLxko55-2" value="21.04.2025" style="text;html=1;align=center;verticalAlign=middle;whiteSpace=wrap;rounded=0;" vertex="1" parent="1">
          <mxGeometry x="40" y="50" width="190" height="30" as="geometry" />
        </mxCell>
        <mxCell id="pG2lrTUrzMcpjXLxko55-3" value="&lt;div align=&quot;left&quot;&gt;&lt;font style=&quot;font-size: 30px;&quot;&gt;&lt;b&gt;v0.2-beta&lt;/b&gt;&lt;/font&gt;&lt;/div&gt;" style="text;html=1;align=left;verticalAlign=middle;whiteSpace=wrap;rounded=0;" vertex="1" parent="1">
          <mxGeometry x="65" y="200" width="140" height="30" as="geometry" />
        </mxCell>
        <mxCell id="pG2lrTUrzMcpjXLxko55-12" style="edgeStyle=orthogonalEdgeStyle;rounded=0;orthogonalLoop=1;jettySize=auto;html=1;entryX=0;entryY=0.5;entryDx=0;entryDy=0;strokeWidth=2;" edge="1" parent="1" source="pG2lrTUrzMcpjXLxko55-8" target="pG2lrTUrzMcpjXLxko55-9">
          <mxGeometry relative="1" as="geometry" />
        </mxCell>
        <mxCell id="pG2lrTUrzMcpjXLxko55-13" style="edgeStyle=orthogonalEdgeStyle;rounded=0;orthogonalLoop=1;jettySize=auto;html=1;entryX=0;entryY=0.5;entryDx=0;entryDy=0;strokeWidth=2;" edge="1" parent="1" source="pG2lrTUrzMcpjXLxko55-8" target="pG2lrTUrzMcpjXLxko55-10">
          <mxGeometry relative="1" as="geometry" />
        </mxCell>
        <mxCell id="pG2lrTUrzMcpjXLxko55-14" style="edgeStyle=orthogonalEdgeStyle;rounded=0;orthogonalLoop=1;jettySize=auto;html=1;entryX=0;entryY=0.5;entryDx=0;entryDy=0;strokeWidth=2;" edge="1" parent="1" source="pG2lrTUrzMcpjXLxko55-8" target="pG2lrTUrzMcpjXLxko55-11">
          <mxGeometry relative="1" as="geometry" />
        </mxCell>
        <mxCell id="pG2lrTUrzMcpjXLxko55-8" value="&lt;b&gt;&lt;font style=&quot;font-size: 22px;&quot;&gt;/&lt;/font&gt;&lt;/b&gt;" style="shape=dataStorage;whiteSpace=wrap;html=1;fixedSize=1;" vertex="1" parent="1">
          <mxGeometry x="65" y="570" width="100" height="80" as="geometry" />
        </mxCell>
        <mxCell id="pG2lrTUrzMcpjXLxko55-17" style="edgeStyle=orthogonalEdgeStyle;rounded=0;orthogonalLoop=1;jettySize=auto;html=1;entryX=0;entryY=0.5;entryDx=0;entryDy=0;strokeWidth=2;" edge="1" parent="1" source="pG2lrTUrzMcpjXLxko55-9" target="pG2lrTUrzMcpjXLxko55-16">
          <mxGeometry relative="1" as="geometry" />
        </mxCell>
        <mxCell id="pG2lrTUrzMcpjXLxko55-25" style="edgeStyle=orthogonalEdgeStyle;rounded=0;orthogonalLoop=1;jettySize=auto;html=1;entryX=0;entryY=0.5;entryDx=0;entryDy=0;strokeWidth=2;" edge="1" parent="1" source="pG2lrTUrzMcpjXLxko55-9" target="pG2lrTUrzMcpjXLxko55-23">
          <mxGeometry relative="1" as="geometry" />
        </mxCell>
        <mxCell id="pG2lrTUrzMcpjXLxko55-9" value="&lt;b&gt;&lt;font style=&quot;font-size: 22px;&quot;&gt;/auth&lt;/font&gt;&lt;/b&gt;" style="shape=dataStorage;whiteSpace=wrap;html=1;fixedSize=1;" vertex="1" parent="1">
          <mxGeometry x="245" y="370" width="140" height="80" as="geometry" />
        </mxCell>
        <mxCell id="pG2lrTUrzMcpjXLxko55-31" style="edgeStyle=orthogonalEdgeStyle;rounded=0;orthogonalLoop=1;jettySize=auto;html=1;entryX=0;entryY=0.5;entryDx=0;entryDy=0;strokeWidth=2;" edge="1" parent="1" source="pG2lrTUrzMcpjXLxko55-10" target="pG2lrTUrzMcpjXLxko55-30">
          <mxGeometry relative="1" as="geometry" />
        </mxCell>
        <mxCell id="pG2lrTUrzMcpjXLxko55-10" value="&lt;b&gt;&lt;font style=&quot;font-size: 22px;&quot;&gt;/crud&lt;/font&gt;&lt;/b&gt;" style="shape=dataStorage;whiteSpace=wrap;html=1;fixedSize=1;" vertex="1" parent="1">
          <mxGeometry x="245" y="570" width="140" height="80" as="geometry" />
        </mxCell>
        <mxCell id="pG2lrTUrzMcpjXLxko55-11" value="&lt;b&gt;&lt;font style=&quot;font-size: 22px;&quot;&gt;/get-img&lt;/font&gt;&lt;/b&gt;" style="shape=dataStorage;whiteSpace=wrap;html=1;fixedSize=1;" vertex="1" parent="1">
          <mxGeometry x="245" y="735" width="140" height="80" as="geometry" />
        </mxCell>
        <mxCell id="pG2lrTUrzMcpjXLxko55-27" style="edgeStyle=orthogonalEdgeStyle;rounded=0;orthogonalLoop=1;jettySize=auto;html=1;entryX=0;entryY=0.5;entryDx=0;entryDy=0;strokeWidth=2;" edge="1" parent="1" source="pG2lrTUrzMcpjXLxko55-16" target="pG2lrTUrzMcpjXLxko55-26">
          <mxGeometry relative="1" as="geometry" />
        </mxCell>
        <mxCell id="pG2lrTUrzMcpjXLxko55-16" value="&lt;b&gt;&lt;font style=&quot;font-size: 22px;&quot;&gt;/profile&lt;/font&gt; &lt;font style=&quot;font-size: 22px;&quot;&gt;- GET&lt;/font&gt;&lt;/b&gt;" style="shape=dataStorage;whiteSpace=wrap;html=1;fixedSize=1;" vertex="1" parent="1">
          <mxGeometry x="435" y="210" width="190" height="80" as="geometry" />
        </mxCell>
        <mxCell id="pG2lrTUrzMcpjXLxko55-23" value="&lt;div&gt;&lt;b&gt;&lt;font style=&quot;font-size: 22px;&quot;&gt;/login - POST&lt;/font&gt;&lt;/b&gt;&lt;/div&gt;&lt;div&gt;&lt;b&gt;&lt;font style=&quot;font-size: 22px;&quot;&gt;/register - POST&lt;/font&gt;&lt;/b&gt;&lt;/div&gt;&lt;div&gt;&lt;b&gt;&lt;font style=&quot;font-size: 22px;&quot;&gt;/logout - POST&lt;/font&gt;&lt;/b&gt;&lt;/div&gt;" style="rounded=1;whiteSpace=wrap;html=1;" vertex="1" parent="1">
          <mxGeometry x="465" y="330" width="190" height="160" as="geometry" />
        </mxCell>
        <mxCell id="pG2lrTUrzMcpjXLxko55-26" value="&lt;b&gt;&lt;font style=&quot;font-size: 22px;&quot;&gt;/forgot-password&lt;/font&gt;&lt;font style=&quot;font-size: 22px;&quot;&gt; - PATCH&lt;/font&gt;&lt;/b&gt;" style="rounded=1;whiteSpace=wrap;html=1;" vertex="1" parent="1">
          <mxGeometry x="685" y="220" width="330" height="60" as="geometry" />
        </mxCell>
        <mxCell id="pG2lrTUrzMcpjXLxko55-28" value="&lt;b&gt;&lt;font style=&quot;font-size: 22px;&quot;&gt;uri - method&lt;/font&gt;&lt;/b&gt;" style="text;html=1;align=center;verticalAlign=middle;whiteSpace=wrap;rounded=0;" vertex="1" parent="1">
          <mxGeometry x="70" y="90" width="130" height="30" as="geometry" />
        </mxCell>
        <mxCell id="pG2lrTUrzMcpjXLxko55-30" value="&lt;div&gt;&lt;b&gt;&lt;font style=&quot;font-size: 22px;&quot;&gt;/polygon - GET|POST&lt;/font&gt;&lt;/b&gt;&lt;/div&gt;&lt;div&gt;&lt;b&gt;&lt;font style=&quot;font-size: 22px;&quot;&gt;/polygon/id - DELETE|PUT&lt;/font&gt;&lt;/b&gt;&lt;/div&gt;" style="rounded=1;whiteSpace=wrap;html=1;" vertex="1" parent="1">
          <mxGeometry x="465" y="530" width="345" height="160" as="geometry" />
        </mxCell>
        <mxCell id="pG2lrTUrzMcpjXLxko55-32" value="&lt;font style=&quot;font-size: 30px;&quot;&gt;&lt;b&gt;&lt;font&gt;DEV&lt;/font&gt;&lt;/b&gt;&lt;/font&gt;" style="text;html=1;align=left;verticalAlign=middle;whiteSpace=wrap;rounded=0;" vertex="1" parent="1">
          <mxGeometry x="65" y="850" width="140" height="30" as="geometry" />
        </mxCell>
        <mxCell id="pG2lrTUrzMcpjXLxko55-36" style="edgeStyle=orthogonalEdgeStyle;rounded=0;orthogonalLoop=1;jettySize=auto;html=1;strokeWidth=2;" edge="1" parent="1" source="pG2lrTUrzMcpjXLxko55-35">
          <mxGeometry relative="1" as="geometry">
            <mxPoint x="210" y="790" as="targetPoint" />
          </mxGeometry>
        </mxCell>
        <mxCell id="pG2lrTUrzMcpjXLxko55-35" value="&lt;b&gt;&lt;font style=&quot;font-size: 22px;&quot;&gt;/api&lt;/font&gt;&lt;/b&gt;" style="shape=dataStorage;whiteSpace=wrap;html=1;fixedSize=1;" vertex="1" parent="1">
          <mxGeometry x="40" y="920" width="100" height="80" as="geometry" />
        </mxCell>
      </root>
    </mxGraphModel>
  </diagram>
</mxfile>
